
<svg width="40" height="40" xmlns="http://www.w3.org/2000/svg"><path d="M20 0C8.938 0 0 8.946 0 19.982 0 31.017 8.938 40 20 40c2.784 0 5.458-.587 7.839-1.613.22-.11.44-.184.66-.294.219-.11.439-.183.622-.293l-1.355-.696-1.869-2.457 2.015-3.96 3.077.037 4.286 2.163c.11-.146.256-.293.366-.44.11-.146.22-.293.366-.44A20.056 20.056 0 0 0 40 20.018C39.963 8.946 31.026 0 20 0zm-5.128 30.577L3.736 24.931l3.224-6.38 11.135 5.647 1.868 2.456-2.014 3.96-3.077-.037zm12.71-3.263l-3.406 6.71c-.147.256-.366.476-.66.55-.293.11-.586.073-.879-.074l-2.674-1.356c-.55-.293-.805-.953-.512-1.54l3.443-6.673a1.29 1.29 0 0 1 .66-.586c.292-.074.585-.074.878.073l2.674 1.357c.513.293.733.99.476 1.54zm4.652-2.016a.59.59 0 0 1-.33.11.522.522 0 0 1-.439-.22 11.73 11.73 0 0 0-3.992-3.336 11.324 11.324 0 0 0-5.202-1.247h-.073a.564.564 0 0 1-.55-.55c0-.293.257-.55.55-.55 2.014 0 3.992.477 5.787 1.357a12.65 12.65 0 0 1 4.36 3.63c.146.256.11.623-.11.806zm1.905-1.833a.59.59 0 0 1-.33.11.522.522 0 0 1-.439-.22c-1.282-1.613-2.857-2.933-4.725-3.85a13.57 13.57 0 0 0-6.227-1.503.564.564 0 0 1-.55-.55c0-.293.257-.55.55-.55a15.22 15.22 0 0 1 6.703 1.65 15.218 15.218 0 0 1 5.091 4.18c.22.183.147.55-.073.733zm2.051-1.76a.59.59 0 0 1-.33.11.522.522 0 0 1-.439-.22c-1.502-1.907-3.37-3.41-5.568-4.51a16.662 16.662 0 0 0-7.326-1.833.564.564 0 0 1-.549-.55c0-.293.256-.55.55-.55 2.747.037 5.384.697 7.838 1.943 2.308 1.174 4.323 2.787 5.934 4.803.184.257.147.624-.11.807z" fill="#004C5C"/></svg>
