<?xml version="1.0" encoding="utf-8"?>
<!-- Generator: Adobe Illustrator 19.2.1, SVG Export Plug-In . SVG Version: 6.00 Build 0)  -->
<svg version="1.1" id="Layer_1" xmlns="http://www.w3.org/2000/svg" xmlns:xlink="http://www.w3.org/1999/xlink" x="0px" y="0px"
	 viewBox="0 0 351 365" style="enable-background:new 0 0 351 365;" xml:space="preserve">
<style type="text/css">
	.st0{fill:#4C8FA5;}
</style>
<g>
	<g id="Layer_1_1_">
	</g>
	<path class="st0" d="M37.8,172.6l24-13.7c-2.6-5.9-9.2-10-14.4-11.1L0.9,174.4l6.3,15.2c5.2-1.5,10.3-2.2,15.5-2.2
		c25.1,0,48,15.9,57.3,39.2l14.4-8.5C84.4,194.7,63,177.7,37.8,172.6"/>
	<path class="st0" d="M328.7,174.4L328.7,174.4c-8.5,0-16.6-1.8-24-4.8l-17.4,10c7.8,5.2,16.6,8.5,25.9,10.3l-142.3,82
		c-4.4,1.1-9.2,1.8-14,1.8c-22.2,0-42.5-12.6-53.2-31.8l13.3-7.8c-5.5-3-10.7-6.3-15.5-10.3L82.2,235c10,32.9,40.3,55.4,74.3,55.4
		c6.7,0,12.9-0.7,19.2-2.6l1.8-0.7l172.6-99l-6.3-15.5C338.7,174.1,333.5,174.4,328.7,174.4"/>
	<path class="st0" d="M269.9,69.5c15.2,33.3,31.4,47.3,58.8,47.3c5.2,0,10.3-0.4,15.2-1.8l6.3,15.5l-171.8,99l-2.2,0.7
		c-6.3,1.8-12.9,2.6-19.2,2.6c-34,0-64.3-22.5-74.3-55.4L269.9,69.5z M103.6,184.8c10.7,19.2,31,31.4,53.2,31.4
		c4.8,0,9.6-0.4,14-1.8l142.3-82.4c-16.6-3-38.8-16.3-50.6-39.2L103.6,184.8z"/>
	<path class="st0" d="M94.4,161.1c-10.3-23.7-31.8-41-56.9-46.2l142.3-82c4.8-1.1,9.6-1.8,14.4-1.8c25.1,0,48,15.9,57.3,39.2
		l14.8-8.5c-12.2-28.5-40.3-47.3-71.7-47.3c-6.7,0-13.3,0.7-20,2.6l-1.8,0.7L0.9,117.1l6.3,15.2c5.2-1.5,10.3-2.2,15.5-2.2
		c25.1,0,48,15.9,57.3,39.2L94.4,161.1z"/>
	<path class="st0" d="M37.8,230.2l24-13.7c-2.6-5.9-9.2-10-14.4-11.1L0.9,232.1l6.3,15.2c5.2-1.5,10.3-2.2,15.5-2.2
		c25.1,0,48,15.9,57.3,39.2l14.4-8.5C84.4,252.4,63,235.4,37.8,230.2"/>
	<path class="st0" d="M328.7,232.1L328.7,232.1c-8.5,0-16.6-1.8-24-4.8l-17.4,10c7.8,5.2,16.6,8.5,25.9,10.3l-142.3,82
		c-4.4,1.1-9.2,1.8-14,1.8c-22.2,0-42.5-12.6-53.2-31.8l13.3-7.8c-5.5-3-10.7-6.3-15.5-10.3l-19.2,11.1c10,32.9,40.3,55.4,74.3,55.4
		c6.7,0,12.9-0.7,19.2-2.6l1.8-0.7l171.8-99l-6.3-15.5C338.7,231.7,333.5,232.1,328.7,232.1"/>
</g>
</svg>
